<?xml version="1.0" standalone="no"?>
<!DOCTYPE svg PUBLIC "-//W3C//DTD SVG 20010904//EN"
 "http://www.w3.org/TR/2001/REC-SVG-20010904/DTD/svg10.dtd">
<svg version="1.0" xmlns="http://www.w3.org/2000/svg"
 width="275.000000pt" height="183.000000pt" viewBox="0 0 275.000000 183.000000"
 preserveAspectRatio="xMidYMid meet">

<g transform="translate(0.000000,183.000000) scale(0.100000,-0.100000)"
fill="#000000" stroke="none">
<path d="M0 915 l0 -915 374 0 c290 0 375 3 379 13 4 9 6 9 6 0 1 -15 136 -18
145 -4 4 5 1 11 -4 13 -15 5 -21 78 -7 78 6 0 18 6 26 13 9 7 35 21 59 30 43
16 43 16 52 -9 5 -13 7 -31 3 -41 -4 -11 -3 -14 5 -9 21 13 13 -14 -14 -50
-19 -24 -22 -34 -12 -34 8 0 21 12 28 28 11 23 14 24 18 8 2 -10 -2 -23 -10
-27 -9 -6 -5 -8 12 -5 15 2 23 9 21 17 -2 8 -5 21 -6 29 -1 8 -7 28 -14 43
-20 51 -23 75 -10 83 8 4 49 9 92 10 54 1 84 7 94 17 13 13 11 14 -18 11 -48
-6 -31 4 55 30 43 14 73 19 69 12 -5 -8 -3 -8 8 1 11 9 16 7 26 -13 9 -19 8
-24 -3 -24 -8 0 -14 5 -14 10 0 6 -5 10 -11 10 -6 0 -9 -7 -5 -15 3 -9 0 -15
-10 -15 -8 0 -13 3 -11 8 3 4 -10 7 -29 7 -23 0 -33 -4 -29 -13 2 -6 0 -12 -5
-12 -6 0 -10 -4 -10 -10 0 -5 8 -10 19 -10 14 0 17 -6 13 -26 l-5 -26 29 18
c26 17 28 17 15 1 -16 -20 -11 -21 24 -5 14 6 28 22 31 35 4 13 11 23 16 23 6
0 8 -9 5 -20 -3 -10 -1 -18 4 -17 8 2 46 -74 72 -147 4 -10 10 -17 13 -14 2 3
-9 41 -26 84 -20 49 -27 80 -21 82 6 2 11 8 11 14 0 6 -7 4 -17 -3 -15 -13
-16 -12 -11 9 4 14 2 20 -5 15 -6 -4 -8 2 -5 15 4 12 3 20 -2 17 -7 -5 -20 17
-20 34 0 4 11 13 23 18 25 12 54 2 44 -14 -3 -5 0 -10 8 -10 18 0 19 9 3 25
-9 9 -7 13 8 17 10 4 29 10 41 15 11 5 24 6 27 2 13 -12 37 -10 43 4 4 12 8
12 21 2 13 -11 14 -11 8 1 -11 16 10 31 44 31 22 0 63 -37 66 -59 0 -3 4 -23
9 -44 5 -25 4 -42 -4 -50 -29 -29 -2 -68 51 -72 30 -1 37 -8 68 -68 19 -37 40
-67 45 -67 9 0 100 34 262 99 l52 20 37 -60 c20 -33 38 -58 41 -55 3 3 -9 28
-26 56 -38 61 -38 68 -6 76 28 7 59 -12 48 -30 -3 -6 -3 -8 2 -4 4 4 24 -4 44
-17 40 -28 70 -31 136 -13 37 10 47 10 57 -1 11 -11 10 -12 0 -7 -17 10 -64
-2 -57 -14 3 -5 0 -7 -7 -5 -8 3 -43 -6 -78 -19 -58 -23 -61 -25 -30 -24 19 0
58 8 85 16 28 9 53 17 58 18 4 1 9 3 12 4 3 1 8 3 13 5 4 1 15 5 25 8 42 16
47 15 68 -19 12 -19 24 -33 26 -30 3 3 -5 19 -18 37 l-22 32 37 -7 c21 -4 43
-9 50 -12 23 -9 46 25 46 68 0 34 -7 47 -45 86 -25 25 -45 47 -45 49 0 2 11
14 25 27 14 13 25 28 25 34 0 18 22 26 31 11 4 -8 8 327 9 744 l0 757 -1375 0
-1375 0 0 -915z m1977 710 c8 -9 13 -18 10 -21 -9 -9 -87 7 -87 17 0 4 7 6 15
3 8 -4 15 -1 15 5 0 16 29 13 47 -4z m-762 -185 c3 -5 -13 -14 -35 -20 -24 -6
-40 -17 -40 -26 0 -12 -2 -12 -14 -2 -12 11 -12 13 1 16 9 2 12 10 8 20 -3 9
-3 14 0 10 3 -3 18 -2 33 2 37 11 40 11 47 0z m-694 -174 c6 -6 9 -6 9 2 0 7
9 12 20 12 11 0 20 -4 20 -10 0 -5 -4 -10 -10 -10 -5 0 -8 -6 -6 -12 1 -7 1
-10 -1 -5 -8 12 -42 8 -50 -8 -5 -9 -13 -11 -22 -6 -11 7 -9 10 8 16 25 8 28
23 4 21 -10 0 -19 7 -21 19 -2 17 -1 17 7 5 9 -13 12 -11 18 10 l8 25 3 -25
c2 -14 8 -29 13 -34z m299 -147 c0 -15 5 -19 15 -15 8 3 15 1 15 -4 0 -6 -6
-10 -12 -10 -9 0 -8 -4 2 -10 8 -5 10 -10 4 -10 -5 0 -15 5 -22 12 -7 7 -12 8
-12 3 0 -5 -7 0 -15 11 -12 16 -16 17 -24 5 -5 -8 -7 -21 -4 -28 3 -8 8 -10
12 -5 6 9 51 -2 51 -12 0 -3 -7 -2 -17 1 -12 5 -14 3 -8 -8 4 -8 5 -11 0 -7
-4 4 -16 3 -26 -3 -21 -11 -69 -2 -69 13 0 5 4 7 9 4 4 -3 13 6 19 19 11 23
10 24 -15 14 -32 -12 -39 -6 -18 14 8 9 15 19 15 24 0 5 23 10 50 11 45 2 50
0 50 -19z m1821 -52 c-13 -13 -26 -3 -16 12 3 6 11 8 17 5 6 -4 6 -10 -1 -17z
m-5 -13 c24 16 56 17 50 0 -2 -6 4 -14 15 -17 20 -5 27 -27 8 -27 -8 0 -8 -5
1 -15 15 -18 7 -19 -22 -4 -15 8 -19 8 -14 0 9 -14 4 -14 -29 -1 -14 5 -23 14
-20 20 3 5 0 7 -7 5 -8 -3 -18 7 -25 26 -11 30 -11 30 5 15 15 -13 21 -14 38
-2z m-941 -117 c-1 -17 3 -35 9 -39 8 -5 7 -8 -2 -8 -7 0 -15 7 -18 15 -5 12
-10 13 -20 4 -11 -9 -14 -8 -15 2 0 8 -5 3 -10 -10 -14 -35 -22 -18 -11 23 8
26 7 36 -1 36 -7 0 -1 9 13 20 22 16 27 17 41 4 9 -8 15 -27 14 -47z m40 -16
c1 -11 -3 -17 -11 -14 -13 5 -25 39 -16 48 9 8 26 -12 27 -34z m-120 9 c3 -5
-1 -10 -9 -10 -9 0 -16 5 -16 10 0 6 4 10 9 10 6 0 13 -4 16 -10z m-1325 -535
c5 -14 16 -25 24 -25 17 0 26 -32 14 -54 -12 -22 -25 -20 -51 8 l-22 24 3 -38
c3 -28 8 -37 18 -33 8 3 14 0 14 -6 0 -15 -23 -14 -38 1 -9 9 -12 8 -12 -6 0
-9 -4 -14 -10 -11 -5 3 -10 1 -10 -4 0 -6 -5 -11 -12 -11 -9 0 -9 3 0 12 17
17 15 28 -7 28 -10 0 -22 -7 -25 -16 -3 -8 -10 -12 -16 -9 -6 4 -7 11 -4 17 4
6 2 13 -3 17 -5 3 -13 21 -16 39 -6 30 -5 32 13 22 22 -12 51 -14 34 -2 -6 4
-14 21 -18 37 l-7 30 20 -22 c12 -12 21 -30 21 -40 0 -14 2 -15 9 -4 5 7 7 21
4 30 -3 13 5 21 29 28 18 6 34 11 36 12 1 1 7 -10 12 -24z m1905 -263 c-3 -3
-70 -31 -148 -62 l-143 -56 5 34 c2 20 -1 32 -6 29 -5 -3 -9 3 -9 13 0 17 7
19 71 15 58 -4 76 -1 100 15 36 24 80 27 72 6 -4 -10 -1 -13 8 -10 7 3 16 12
19 20 3 8 12 11 21 8 9 -4 13 -9 10 -12z m-325 -24 c6 -18 16 -41 21 -50 6
-13 5 -16 -5 -12 -13 5 -46 66 -46 84 0 22 18 8 30 -22z"/>
<path d="M230 370 c0 -5 4 -10 9 -10 6 0 13 5 16 10 3 6 -1 10 -9 10 -9 0 -16
-4 -16 -10z"/>
<path d="M176 314 c-10 -25 1 -29 14 -5 6 12 7 21 1 21 -5 0 -12 -7 -15 -16z"/>
<path d="M205 310 c-3 -5 1 -10 9 -10 8 0 18 5 21 10 3 6 -1 10 -9 10 -8 0
-18 -4 -21 -10z"/>
<path d="M1540 290 c0 -5 6 -11 13 -11 6 -1 -1 -5 -18 -9 -25 -6 -26 -8 -7 -9
13 0 21 -5 18 -10 -3 -4 -16 -6 -29 -4 -15 3 -28 -2 -38 -14 -13 -17 -13 -17
4 -4 14 11 20 12 26 3 16 -27 67 22 55 53 -7 17 -24 21 -24 5z"/>
<path d="M1405 260 c3 -5 11 -10 16 -10 6 0 7 5 4 10 -3 6 -11 10 -16 10 -6 0
-7 -4 -4 -10z"/>
<path d="M1629 173 c-13 -16 -12 -17 4 -4 16 13 21 21 13 21 -2 0 -10 -8 -17
-17z"/>
<path d="M1126 91 c-15 -6 -16 -10 -7 -15 8 -5 20 -2 29 8 17 17 9 19 -22 7z"/>
<path d="M1122 28 c-14 -14 -16 -28 -3 -28 9 0 24 30 18 36 -2 2 -9 -2 -15 -8z"/>
</g>
</svg>
