<?xml version="1.0" standalone="no"?>
<!DOCTYPE svg PUBLIC "-//W3C//DTD SVG 20010904//EN"
 "http://www.w3.org/TR/2001/REC-SVG-20010904/DTD/svg10.dtd">
<svg version="1.0" xmlns="http://www.w3.org/2000/svg"
 width="1080.000000pt" height="607.000000pt" viewBox="0 0 1080.000000 607.000000"
 preserveAspectRatio="xMidYMid meet">

<g transform="translate(0.000000,607.000000) scale(0.100000,-0.100000)"
fill="#000000" stroke="none">
<path d="M5575 5099 c-571 -47 -1008 -377 -1180 -892 -47 -140 -66 -255 -72
-433 -28 -783 430 -1338 1182 -1435 131 -17 455 -6 570 19 189 41 344 106 494
206 288 191 474 484 548 861 24 127 24 453 0 580 -59 300 -174 529 -358 713
-226 226 -519 351 -893 382 -141 11 -145 11 -291 -1z m358 -304 c112 -19 261
-73 351 -126 101 -60 258 -221 315 -323 58 -103 117 -277 136 -401 8 -55 15
-158 15 -230 0 -350 -96 -615 -296 -816 -195 -198 -454 -290 -778 -276 -266
11 -486 99 -654 261 -117 112 -198 242 -250 401 -49 151 -57 211 -56 440 0
177 3 224 21 301 103 441 389 707 833 777 66 11 285 6 363 -8z"/>
<path d="M1700 4910 l0 -150 500 0 500 0 0 -1190 0 -1190 185 0 185 0 0 1190
0 1190 505 0 506 0 -3 148 -3 147 -1187 3 -1188 2 0 -150z"/>
<path d="M7470 4285 l0 -115 480 0 c264 0 480 -3 480 -6 0 -6 -316 -714 -759
-1699 l-90 -200 126 -3 c70 -1 130 1 134 5 4 4 206 450 448 991 l441 983 0 79
0 80 -630 0 -630 0 0 -115z"/>
<path d="M1798 2083 c-49 -2 -88 -8 -88 -13 0 -7 1337 -10 3692 -10 2954 0
3690 3 3680 13 -10 9 -745 12 -3605 13 -1976 0 -3631 -1 -3679 -3z"/>
<path d="M3626 1935 l-16 -25 -380 0 c-299 0 -380 -3 -380 -13 0 -7 10 -17 23
-22 l22 -10 3 -403 2 -402 -25 -12 c-14 -6 -25 -17 -25 -25 0 -11 70 -13 385
-13 l385 0 12 -25 c6 -14 17 -25 25 -25 10 0 13 22 13 95 0 54 -4 95 -10 95
-5 0 -20 -11 -34 -25 l-25 -25 -291 0 -290 0 0 165 0 165 195 0 195 0 16 -25
c9 -14 20 -25 25 -25 5 0 9 43 9 95 0 52 -3 95 -6 95 -4 0 -17 -11 -30 -25
-23 -25 -23 -25 -214 -25 l-190 0 0 150 0 150 295 0 295 0 16 -25 c9 -14 20
-25 25 -25 5 0 9 43 9 95 0 52 -4 95 -9 95 -5 0 -16 -11 -25 -25z"/>
<path d="M3780 1865 c0 -52 2 -95 5 -95 2 0 15 11 29 25 25 25 28 25 186 25
l160 0 0 -374 0 -375 -25 -19 c-45 -36 -32 -42 85 -42 82 0 110 3 110 13 0 7
-10 17 -22 22 -13 6 -26 24 -31 44 -4 19 -7 190 -5 380 l3 346 140 3 c165 3
202 -1 210 -28 4 -11 13 -20 21 -20 11 0 14 19 14 95 0 70 -3 95 -13 95 -7 0
-17 -10 -22 -22 l-10 -23 -398 -3 -397 -2 -12 25 c-20 45 -28 26 -28 -70z"/>
<path d="M6572 1915 c-166 -30 -293 -123 -360 -262 -36 -76 -37 -81 -37 -194
0 -113 1 -116 38 -191 88 -179 259 -271 502 -271 240 0 402 89 492 269 33 68
38 86 41 170 4 74 0 107 -17 162 -73 242 -346 374 -659 317z m290 -105 c125
-38 221 -132 255 -249 22 -78 14 -184 -21 -255 -36 -73 -128 -158 -203 -186
-73 -28 -218 -38 -294 -20 -108 26 -208 95 -262 181 -54 88 -60 238 -13 333
46 93 146 175 245 202 74 20 219 17 293 -6z"/>
<path d="M6710 1810 c0 -5 5 -10 11 -10 6 0 9 -6 6 -13 -4 -10 2 -13 21 -9 24
5 25 6 7 13 -11 4 -15 8 -10 8 6 1 3 6 -5 11 -19 13 -30 13 -30 0z"/>
<path d="M6625 1800 c3 -5 8 -10 11 -10 2 0 4 5 4 10 0 6 -5 10 -11 10 -5 0
-7 -4 -4 -10z"/>
<path d="M6777 1789 c4 -13 8 -18 11 -10 2 7 -1 18 -6 23 -8 8 -9 4 -5 -13z"/>
<path d="M6800 1799 c0 -5 5 -9 12 -9 6 0 3 -10 -8 -22 -10 -13 -12 -17 -4
-10 17 14 34 16 25 2 -3 -5 0 -7 8 -4 8 3 20 -2 27 -11 11 -13 11 -20 0 -41
-12 -22 -11 -26 8 -40 12 -8 20 -19 17 -24 -3 -4 5 -10 17 -13 17 -5 16 -1
-12 28 -36 37 -33 56 8 49 15 -2 22 -1 16 3 -6 5 -10 16 -9 25 2 11 -3 15 -16
13 -17 -3 -23 5 -21 26 1 3 -15 12 -34 21 -19 9 -34 12 -34 7z"/>
<path d="M6540 1770 c0 -5 5 -10 10 -10 6 0 10 5 10 10 0 6 -4 10 -10 10 -5 0
-10 -4 -10 -10z"/>
<path d="M6650 1756 c0 -2 7 -7 16 -10 8 -3 12 -2 9 4 -6 10 -25 14 -25 6z"/>
<path d="M6745 1750 c-3 -6 1 -7 9 -4 18 7 21 14 7 14 -6 0 -13 -4 -16 -10z"/>
<path d="M6609 1713 l-24 -28 28 24 c15 14 27 26 27 28 0 8 -8 1 -31 -24z"/>
<path d="M6818 1733 c7 -3 16 -2 19 1 4 3 -2 6 -13 5 -11 0 -14 -3 -6 -6z"/>
<path d="M6470 1720 c0 -5 5 -10 10 -10 6 0 10 5 10 10 0 6 -4 10 -10 10 -5 0
-10 -4 -10 -10z"/>
<path d="M6945 1720 c3 -5 8 -10 11 -10 2 0 4 5 4 10 0 6 -5 10 -11 10 -5 0
-7 -4 -4 -10z"/>
<path d="M6920 1656 c0 -2 7 -7 16 -10 8 -3 12 -2 9 4 -6 10 -25 14 -25 6z"/>
<path d="M7000 1650 c0 -5 5 -10 10 -10 6 0 10 5 10 10 0 6 -4 10 -10 10 -5 0
-10 -4 -10 -10z"/>
<path d="M6840 1646 c0 -2 7 -7 16 -10 8 -3 12 -2 9 4 -6 10 -25 14 -25 6z"/>
<path d="M6643 1605 c-7 -8 -9 -16 -4 -19 5 -3 12 1 15 10 8 22 4 25 -11 9z"/>
<path d="M6445 1558 l-40 -43 43 40 c39 36 47 45 39 45 -2 0 -21 -19 -42 -42z"/>
<path d="M6565 1590 c3 -5 8 -10 11 -10 2 0 4 5 4 10 0 6 -5 10 -11 10 -5 0
-7 -4 -4 -10z"/>
<path d="M7028 1582 c9 -11 21 -17 25 -14 5 2 0 10 -10 18 -26 20 -36 17 -15
-4z"/>
<path d="M6380 1569 c0 -5 5 -7 10 -4 6 3 10 8 10 11 0 2 -4 4 -10 4 -5 0 -10
-5 -10 -11z"/>
<path d="M6910 1561 c0 -5 5 -13 10 -16 6 -3 10 -2 10 4 0 5 -4 13 -10 16 -5
3 -10 2 -10 -4z"/>
<path d="M7008 1543 c10 -16 17 -34 14 -42 -3 -9 0 -12 10 -8 9 3 21 0 27 -6
6 -6 11 -7 11 -1 0 5 -9 15 -21 22 -12 8 -18 19 -15 28 3 9 1 12 -4 9 -6 -3
-13 1 -16 9 -3 9 -10 16 -16 16 -5 0 -1 -12 10 -27z"/>
<path d="M6818 1543 c6 -2 18 -2 25 0 6 3 1 5 -13 5 -14 0 -19 -2 -12 -5z"/>
<path d="M6934 1528 c-4 -7 -4 -10 1 -6 4 4 14 3 22 -4 11 -8 12 -7 7 6 -7 19
-20 21 -30 4z"/>
<path d="M6510 1499 c0 -5 5 -7 10 -4 6 3 10 8 10 11 0 2 -4 4 -10 4 -5 0 -10
-5 -10 -11z"/>
<path d="M6365 1490 c-3 -5 -1 -10 4 -10 6 0 11 5 11 10 0 6 -2 10 -4 10 -3 0
-8 -4 -11 -10z"/>
<path d="M6924 1458 c-16 -18 -20 -25 -8 -15 11 9 24 15 27 12 4 -3 5 -2 2 2
-3 3 0 12 6 20 23 27 2 12 -27 -19z"/>
<path d="M7042 1411 c13 -22 28 -28 28 -11 0 5 -9 14 -20 20 -19 10 -20 10 -8
-9z"/>
<path d="M6969 1403 c-13 -16 -12 -17 4 -4 16 13 21 21 13 21 -2 0 -10 -8 -17
-17z"/>
<path d="M6370 1401 c0 -6 4 -13 10 -16 6 -3 7 1 4 9 -7 18 -14 21 -14 7z"/>
<path d="M6576 1395 c-9 -26 -7 -32 5 -12 6 10 9 21 6 23 -2 3 -7 -2 -11 -11z"/>
<path d="M7010 1398 c0 -9 -6 -19 -12 -21 -10 -4 -10 -6 0 -6 14 -1 28 26 18
36 -3 4 -6 -1 -6 -9z"/>
<path d="M6757 1308 c-26 -27 -44 -48 -39 -48 10 0 98 88 91 92 -2 2 -25 -18
-52 -44z"/>
<path d="M6996 1344 c-5 -12 -2 -15 10 -10 8 3 21 6 27 6 7 0 6 4 -3 10 -21
14 -27 12 -34 -6z"/>
<path d="M6396 1325 c-3 -8 -1 -15 4 -15 6 0 10 5 10 11 0 5 5 7 12 3 7 -4 8
-3 4 4 -10 16 -23 15 -30 -3z"/>
<path d="M7016 1314 c-5 -13 -9 -14 -20 -5 -11 9 -15 8 -20 -6 -4 -10 -4 -14
0 -10 4 4 12 3 18 -1 7 -5 18 -1 28 9 10 10 13 21 9 24 -5 2 -12 -2 -15 -11z"/>
<path d="M6954 1276 c0 -14 6 -22 14 -19 15 6 15 11 -2 28 -12 12 -14 11 -12
-9z"/>
<path d="M6827 1263 c-10 -9 -9 -33 1 -33 4 0 8 9 8 20 0 23 0 22 -9 13z"/>
<path d="M6440 1245 c0 -8 7 -15 16 -15 14 0 14 3 4 15 -7 8 -14 15 -16 15 -2
0 -4 -7 -4 -15z"/>
<path d="M6710 1240 c0 -5 5 -10 11 -10 5 0 7 5 4 10 -3 6 -8 10 -11 10 -2 0
-4 -4 -4 -10z"/>
<path d="M6937 1239 c7 -7 15 -10 18 -7 3 3 -2 9 -12 12 -14 6 -15 5 -6 -5z"/>
<path d="M6485 1230 c-8 -13 5 -13 25 0 13 8 13 10 -2 10 -9 0 -20 -4 -23 -10z"/>
<path d="M6886 1218 c3 -5 10 -6 15 -3 13 9 11 12 -6 12 -8 0 -12 -4 -9 -9z"/>
<path d="M6648 1213 c6 -2 18 -2 25 0 6 3 1 5 -13 5 -14 0 -19 -2 -12 -5z"/>
<path d="M6725 1200 c-8 -13 5 -13 25 0 13 8 13 10 -2 10 -9 0 -20 -4 -23 -10z"/>
<path d="M6807 1196 c-4 -10 1 -12 14 -9 23 6 24 9 5 16 -8 3 -17 0 -19 -7z"/>
<path d="M6500 1190 c0 -13 18 -22 24 -11 3 5 -1 11 -9 15 -8 3 -15 1 -15 -4z"/>
<path d="M6890 1182 c0 -4 9 -8 20 -8 11 0 20 4 20 8 0 4 -9 8 -20 8 -11 0
-20 -4 -20 -8z"/>
<path d="M6601 1159 c-13 -11 -21 -23 -17 -27 4 -4 13 1 20 10 7 10 15 16 18
13 2 -3 5 2 5 10 0 8 -1 15 -1 15 -1 -1 -12 -10 -25 -21z"/>
<path d="M6652 1156 c7 -8 15 -12 17 -11 5 6 -10 25 -20 25 -5 0 -4 -6 3 -14z"/>
<path d="M6843 1155 c-3 -9 -3 -18 -1 -21 3 -3 8 4 11 16 6 23 -1 27 -10 5z"/>
<path d="M6775 1151 c-3 -5 -2 -12 3 -15 5 -3 9 1 9 9 0 17 -3 19 -12 6z"/>
<path d="M6746 1132 c-3 -6 -1 -14 5 -17 15 -10 25 3 12 16 -7 7 -13 7 -17 1z"/>
<path d="M1700 1903 c0 -4 12 -17 28 -29 l27 -22 3 -366 c1 -201 -1 -380 -6
-398 -4 -19 -17 -37 -30 -43 -12 -5 -22 -15 -22 -22 0 -10 26 -13 100 -13 57
0 100 4 100 10 0 5 -11 20 -25 34 l-25 25 0 343 0 343 34 -35 c72 -74 559
-616 574 -639 15 -22 15 -25 -6 -41 -42 -34 -27 -40 93 -40 66 0 115 4 115 10
0 5 -11 20 -25 34 l-25 25 0 385 c0 336 2 387 16 400 8 9 20 16 25 16 5 0 9 7
9 15 0 12 -18 15 -100 15 -55 0 -100 -3 -100 -7 0 -4 12 -17 28 -29 l27 -22 3
-322 c1 -201 -1 -321 -7 -318 -10 3 -487 530 -529 583 -28 35 -29 72 -2 80 11
3 20 13 20 21 0 11 -26 14 -150 14 -82 0 -150 -3 -150 -7z"/>
<path d="M4670 1898 c0 -7 13 -20 28 -29 25 -14 44 -58 167 -385 75 -203 138
-382 139 -399 1 -22 -5 -32 -21 -40 -13 -5 -23 -16 -23 -23 0 -10 28 -12 127
-10 128 3 159 13 108 36 -40 18 -50 -19 145 522 29 80 55 150 59 157 6 12 241
-622 241 -651 0 -9 -9 -21 -20 -28 -11 -7 -20 -18 -20 -25 0 -10 30 -13 120
-13 90 0 120 3 120 13 0 7 -9 18 -20 25 -11 7 -20 20 -20 30 0 23 257 741 276
769 8 13 25 25 39 29 14 3 25 12 25 20 0 11 -23 14 -115 14 -93 0 -115 -3
-115 -14 0 -8 9 -17 19 -21 11 -3 22 -13 26 -22 3 -10 -43 -157 -111 -350
l-118 -333 -117 323 c-65 177 -118 332 -119 344 0 13 9 28 20 35 11 7 20 18
20 25 0 10 -30 13 -120 13 -97 0 -120 -3 -120 -14 0 -8 9 -18 20 -21 12 -4 20
-15 20 -30 0 -22 -216 -643 -229 -657 -7 -8 -241 627 -241 654 0 10 9 23 20
30 11 7 20 18 20 25 0 10 -29 13 -115 13 -85 0 -115 -3 -115 -12z"/>
<path d="M7420 1898 c0 -7 10 -18 23 -23 l22 -10 3 -403 2 -402 -25 -12 c-14
-6 -25 -17 -25 -25 0 -10 25 -13 110 -13 91 0 110 3 110 15 0 8 -4 15 -9 15
-5 0 -17 7 -25 16 -13 13 -16 45 -16 190 l0 174 163 0 162 0 107 -168 c122
-192 126 -199 104 -208 -9 -3 -16 -12 -16 -20 0 -11 23 -14 110 -14 84 0 110
3 110 13 0 7 -12 17 -26 23 -19 6 -58 60 -143 194 l-118 185 51 11 c70 15 130
47 159 86 73 96 52 257 -42 326 -73 53 -91 56 -453 60 -277 3 -338 1 -338 -10z
m688 -106 c84 -45 107 -169 43 -233 -43 -42 -86 -49 -333 -49 l-228 0 0 156 0
156 238 -4 c225 -3 239 -4 280 -26z"/>
<path d="M8470 1903 c0 -4 12 -17 28 -29 l27 -22 3 -365 c2 -201 -1 -381 -6
-399 -4 -19 -17 -37 -30 -43 -12 -5 -22 -15 -22 -22 0 -10 28 -13 110 -13 117
0 130 6 85 42 -25 19 -25 22 -25 163 l0 144 94 71 c52 38 96 70 99 70 2 0 80
-97 172 -215 154 -199 181 -245 145 -245 -5 0 -10 -7 -10 -15 0 -12 20 -15
120 -15 97 0 120 3 120 14 0 8 -10 16 -22 18 -15 2 -88 86 -231 266 -192 243
-207 265 -190 277 10 7 97 74 193 149 96 75 187 139 203 142 15 4 27 13 27 20
0 11 -26 14 -125 14 -104 0 -125 -2 -125 -15 0 -8 5 -15 11 -15 6 0 9 -9 7
-20 -2 -12 -96 -91 -243 -205 l-240 -185 -3 177 c-3 199 -1 219 28 228 11 3
20 13 20 21 0 11 -21 14 -110 14 -60 0 -110 -3 -110 -7z"/>
<path d="M3190 725 c0 -30 5 -55 10 -55 6 0 10 11 10 25 0 18 5 25 20 25 15 0
20 -7 20 -25 0 -14 5 -25 10 -25 6 0 10 25 10 55 0 30 -4 55 -10 55 -5 0 -10
-9 -10 -20 0 -13 -7 -20 -20 -20 -13 0 -20 7 -20 20 0 11 -4 20 -10 20 -5 0
-10 -25 -10 -55z"/>
<path d="M3962 728 l3 -53 35 0 35 0 3 53 c2 30 -1 52 -7 52 -5 0 -11 -19 -13
-42 -2 -30 -8 -43 -18 -43 -10 0 -16 13 -18 43 -2 23 -8 42 -13 42 -6 0 -9
-22 -7 -52z"/>
<path d="M4067 774 c-16 -16 -6 -45 18 -54 14 -5 25 -14 25 -20 0 -13 -13 -13
-28 2 -15 15 -26 4 -19 -17 7 -18 48 -20 65 -3 20 20 14 37 -20 54 -19 10 -27
19 -20 22 7 2 20 -2 28 -9 14 -12 16 -11 13 6 -4 20 -47 33 -62 19z"/>
<path d="M4190 725 l0 -55 40 0 c22 0 40 5 40 10 0 6 -13 10 -30 10 -20 0 -30
5 -30 15 0 9 9 15 25 15 14 0 25 5 25 10 0 6 -11 10 -25 10 -14 0 -25 5 -25
10 0 6 14 10 30 10 17 0 30 5 30 10 0 6 -18 10 -40 10 l-40 0 0 -55z"/>
<path d="M4400 725 c0 -54 0 -55 30 -55 23 0 31 5 36 25 8 34 -1 55 -26 55
-11 0 -20 7 -20 15 0 8 -4 15 -10 15 -5 0 -10 -25 -10 -55z m45 -13 c0 -18
-20 -15 -23 4 -3 10 1 15 10 12 7 -3 13 -10 13 -16z"/>
<path d="M4857 774 c-16 -16 -6 -45 18 -54 14 -5 25 -14 25 -20 0 -14 -27 -12
-33 3 -2 6 -8 9 -12 5 -14 -13 4 -38 28 -38 52 0 62 42 15 66 -19 10 -27 19
-20 22 7 2 20 -2 28 -9 14 -12 16 -11 13 6 -4 20 -47 33 -62 19z"/>
<path d="M4943 765 c-5 -11 -8 -37 -6 -57 4 -29 10 -38 24 -38 10 0 19 5 19
10 0 6 -4 10 -10 10 -14 0 -13 33 2 48 8 8 9 12 1 12 -6 0 -13 8 -15 18 -4 15
-5 15 -15 -3z"/>
<path d="M5203 765 c-5 -11 -8 -37 -6 -57 4 -29 10 -38 24 -38 10 0 19 5 19
10 0 6 -4 10 -10 10 -14 0 -13 33 2 48 8 8 9 12 1 12 -6 0 -13 8 -15 18 -4 15
-5 15 -15 -3z"/>
<path d="M5330 726 c0 -55 0 -56 30 -56 71 0 74 101 2 108 l-32 3 0 -55z m55
-1 c0 -20 -6 -31 -17 -33 -15 -3 -18 4 -18 33 0 29 3 36 18 33 11 -2 17 -13
17 -33z"/>
<path d="M5430 770 c0 -5 5 -10 10 -10 6 0 10 5 10 10 0 6 -4 10 -10 10 -5 0
-10 -4 -10 -10z"/>
<path d="M5470 770 c0 -5 5 -10 10 -10 6 0 10 5 10 10 0 6 -4 10 -10 10 -5 0
-10 -4 -10 -10z"/>
<path d="M5510 725 c0 -54 0 -55 30 -55 23 0 31 5 36 25 8 34 -1 55 -26 55
-11 0 -20 7 -20 15 0 8 -4 15 -10 15 -5 0 -10 -25 -10 -55z m45 -13 c0 -18
-20 -15 -23 4 -3 10 1 15 10 12 7 -3 13 -10 13 -16z"/>
<path d="M5783 765 c-5 -11 -8 -37 -6 -57 4 -29 10 -38 24 -38 10 0 19 5 19
10 0 6 -4 10 -10 10 -14 0 -13 33 2 48 8 8 9 12 1 12 -6 0 -13 8 -15 18 -4 15
-5 15 -15 -3z"/>
<path d="M5830 770 c0 -5 5 -10 10 -10 6 0 10 5 10 10 0 6 -4 10 -10 10 -5 0
-10 -4 -10 -10z"/>
<path d="M5920 765 c-29 -35 -7 -95 35 -95 13 0 26 7 29 16 9 23 0 30 -18 15
-20 -17 -36 -6 -36 24 0 30 16 41 36 24 17 -14 29 -6 21 16 -8 19 -51 20 -67
0z"/>
<path d="M6010 770 c0 -5 5 -10 10 -10 6 0 10 5 10 10 0 6 -4 10 -10 10 -5 0
-10 -4 -10 -10z"/>
<path d="M6053 765 c-5 -11 -8 -37 -6 -57 4 -29 10 -38 24 -38 10 0 19 5 19
10 0 6 -5 10 -11 10 -6 0 -9 10 -7 23 4 31 21 24 32 -14 7 -24 7 -34 -2 -37
-19 -6 -14 -22 8 -22 11 0 20 1 20 3 0 1 9 26 20 55 16 41 17 52 6 52 -7 0
-17 -10 -21 -22 l-8 -23 -4 23 c-3 15 -11 22 -28 22 -14 0 -25 7 -27 18 -4 15
-5 15 -15 -3z"/>
<path d="M6250 726 c0 -31 5 -56 10 -56 6 0 10 9 10 20 0 11 4 20 10 20 5 0
14 -9 20 -20 6 -11 18 -20 27 -20 14 0 14 2 -1 25 -10 15 -12 25 -6 25 6 0 10
12 8 28 -3 23 -8 27 -40 30 l-38 3 0 -55z m58 22 c-7 -19 -38 -22 -38 -4 0 10
9 16 21 16 12 0 19 -5 17 -12z"/>
<path d="M6610 725 c0 -54 0 -55 30 -55 23 0 31 5 36 25 8 34 -1 55 -26 55
-11 0 -20 7 -20 15 0 8 -4 15 -10 15 -5 0 -10 -25 -10 -55z m45 -13 c0 -18
-20 -15 -23 4 -3 10 1 15 10 12 7 -3 13 -10 13 -16z"/>
<path d="M6700 725 c0 -30 5 -55 10 -55 6 0 10 25 10 55 0 30 -4 55 -10 55 -5
0 -10 -25 -10 -55z"/>
<path d="M6740 770 c0 -5 5 -10 10 -10 6 0 10 5 10 10 0 6 -4 10 -10 10 -5 0
-10 -4 -10 -10z"/>
<path d="M6992 763 c-11 -21 -4 -93 9 -93 5 0 9 13 9 29 0 16 6 32 13 34 9 4
8 8 -3 16 -10 7 -11 11 -2 11 6 0 12 5 12 10 0 17 -29 11 -38 -7z"/>
<path d="M7080 725 c0 -54 0 -55 30 -55 37 0 65 38 54 72 -9 29 -22 38 -56 38
-27 0 -28 -2 -28 -55z m55 0 c0 -20 -6 -31 -17 -33 -15 -3 -18 4 -18 33 0 29
3 36 18 33 11 -2 17 -13 17 -33z"/>
<path d="M7180 770 c0 -5 5 -10 10 -10 6 0 10 5 10 10 0 6 -4 10 -10 10 -5 0
-10 -4 -10 -10z"/>
<path d="M7220 770 c0 -5 5 -10 10 -10 6 0 10 5 10 10 0 6 -4 10 -10 10 -5 0
-10 -4 -10 -10z"/>
<path d="M7260 725 c0 -54 0 -55 29 -55 21 0 32 6 36 20 9 30 -4 60 -26 60
-10 0 -19 7 -19 15 0 8 -4 15 -10 15 -5 0 -10 -25 -10 -55z m45 -13 c0 -18
-20 -15 -23 4 -3 10 1 15 10 12 7 -3 13 -10 13 -16z"/>
<path d="M7533 765 c-5 -11 -8 -37 -6 -57 4 -29 10 -38 24 -38 10 0 19 5 19
10 0 6 -4 10 -10 10 -14 0 -13 33 2 48 8 8 9 12 1 12 -6 0 -13 8 -15 18 -4 15
-5 15 -15 -3z"/>
<path d="M7580 770 c0 -5 5 -10 10 -10 6 0 10 5 10 10 0 6 -4 10 -10 10 -5 0
-10 -4 -10 -10z"/>
<path d="M3295 741 c-3 -6 -4 -15 0 -20 3 -5 1 -12 -4 -16 -19 -11 1 -35 31
-35 28 0 29 2 26 38 -2 29 -8 38 -25 40 -11 2 -24 -2 -28 -7z"/>
<path d="M3370 710 c0 -22 5 -40 10 -40 6 0 10 13 10 29 0 16 6 31 14 34 16 6
30 -19 16 -28 -19 -11 3 -35 32 -35 28 0 29 2 26 38 l-3 37 -52 2 -53 3 0 -40z"/>
<path d="M3500 710 c0 -22 5 -40 10 -40 6 0 10 14 10 30 0 17 5 30 10 30 6 0
10 -13 10 -30 0 -16 5 -30 10 -30 6 0 10 11 10 24 0 14 5 28 10 31 6 4 10 -7
10 -24 0 -21 5 -31 15 -31 8 0 15 8 15 17 0 15 1 15 13 -1 16 -21 45 -18 61 7
23 36 -35 77 -60 43 -10 -15 -12 -15 -18 -1 -4 11 -20 15 -56 15 l-50 0 0 -40z
m165 0 c0 -7 -6 -15 -12 -17 -8 -3 -13 4 -13 17 0 13 5 20 13 18 6 -3 12 -11
12 -18z"/>
<path d="M3712 713 c3 -35 6 -38 36 -41 31 -3 32 -2 32 37 0 30 -4 41 -15 41
-10 0 -15 -10 -15 -30 0 -16 -4 -30 -10 -30 -5 0 -10 14 -10 30 0 17 -5 30
-11 30 -6 0 -9 -16 -7 -37z"/>
<path d="M3797 737 c-3 -8 0 -20 6 -26 8 -8 8 -11 -1 -11 -6 0 -9 -7 -5 -16 3
-9 15 -14 32 -12 23 3 26 8 26 38 -1 30 -5 35 -27 38 -15 2 -28 -3 -31 -11z"/>
<path d="M4280 711 c0 -23 5 -41 10 -41 6 0 10 14 10 30 0 17 5 30 10 30 6 0
10 -13 10 -30 0 -16 5 -30 10 -30 6 0 10 11 10 24 0 14 5 28 10 31 6 4 10 -7
10 -24 0 -21 5 -31 16 -31 12 0 14 9 12 38 l-3 37 -52 3 -53 3 0 -40z"/>
<path d="M4495 741 c-3 -6 -4 -15 0 -20 3 -5 1 -12 -4 -16 -19 -11 1 -35 31
-35 28 0 29 2 26 38 -2 29 -8 38 -25 40 -11 2 -24 -2 -28 -7z"/>
<path d="M4567 736 c-3 -9 -2 -18 2 -21 5 -3 7 -14 4 -26 -5 -18 -2 -20 23
-17 26 3 29 7 29 38 -1 30 -5 35 -27 38 -16 2 -28 -3 -31 -12z"/>
<path d="M4647 736 c-3 -9 -2 -18 2 -21 5 -3 7 -14 4 -26 -5 -18 -2 -20 23
-17 26 3 29 7 29 38 -1 30 -5 35 -27 38 -16 2 -28 -3 -31 -12z"/>
<path d="M4724 734 c16 -43 18 -67 5 -75 -11 -6 -10 -9 4 -15 23 -8 24 -7 47
55 16 41 17 51 6 51 -7 0 -17 -10 -21 -22 l-8 -23 -4 23 c-2 12 -11 22 -20 22
-10 0 -13 -6 -9 -16z"/>
<path d="M4990 710 c0 -22 5 -40 10 -40 6 0 10 13 10 29 0 17 6 31 16 35 12 5
15 2 10 -10 -9 -24 12 -56 36 -52 12 2 23 9 26 17 3 9 -2 11 -17 6 -12 -4 -21
-2 -21 4 0 6 9 11 21 11 14 0 19 5 17 18 -2 13 -15 18 -56 19 l-52 3 0 -40z"/>
<path d="M5120 731 c-15 -29 4 -63 32 -59 12 2 23 9 26 17 3 9 -2 11 -17 6
-12 -4 -21 -2 -21 4 0 6 9 11 21 11 14 0 19 5 17 18 -5 25 -44 27 -58 3z"/>
<path d="M5430 706 c0 -26 -5 -46 -12 -49 -7 -2 -10 -8 -6 -12 4 -4 14 -5 23
-2 17 7 22 107 5 107 -5 0 -10 -20 -10 -44z"/>
<path d="M5470 710 c0 -22 5 -40 10 -40 6 0 10 18 10 40 0 22 -4 40 -10 40 -5
0 -10 -18 -10 -40z"/>
<path d="M5600 731 c-25 -47 36 -83 64 -38 8 12 8 22 0 35 -16 25 -51 27 -64
3z m45 -21 c0 -7 -6 -15 -12 -17 -8 -3 -13 4 -13 17 0 13 5 20 13 18 6 -3 12
-11 12 -18z"/>
<path d="M5692 713 c3 -35 6 -38 36 -41 31 -3 32 -2 32 37 0 30 -4 41 -15 41
-10 0 -15 -10 -15 -30 0 -16 -4 -30 -10 -30 -5 0 -10 14 -10 30 0 17 -5 30
-11 30 -6 0 -9 -16 -7 -37z"/>
<path d="M5830 710 c0 -22 5 -40 10 -40 6 0 10 18 10 40 0 22 -4 40 -10 40 -5
0 -10 -18 -10 -40z"/>
<path d="M6010 710 c0 -22 5 -40 10 -40 6 0 10 18 10 40 0 22 -4 40 -10 40 -5
0 -10 -18 -10 -40z"/>
<path d="M6350 731 c-15 -29 4 -63 32 -59 12 2 23 9 26 17 3 9 -2 11 -17 6
-12 -4 -21 -2 -21 4 0 6 9 11 21 11 14 0 19 5 17 18 -5 25 -44 27 -58 3z"/>
<path d="M6430 695 c0 -30 5 -55 10 -55 6 0 10 7 10 15 0 8 9 15 20 15 13 0
22 9 26 25 9 38 -2 55 -36 55 -30 0 -30 0 -30 -55z m45 17 c0 -18 -20 -15 -23
4 -3 10 1 15 10 12 7 -3 13 -10 13 -16z"/>
<path d="M6522 713 c3 -35 6 -38 36 -41 31 -3 32 -2 32 37 0 30 -4 41 -15 41
-10 0 -15 -10 -15 -30 0 -16 -4 -30 -10 -30 -5 0 -10 14 -10 30 0 17 -5 30
-11 30 -6 0 -9 -16 -7 -37z"/>
<path d="M6740 710 c0 -22 5 -40 10 -40 6 0 10 18 10 40 0 22 -4 40 -10 40 -5
0 -10 -18 -10 -40z"/>
<path d="M6780 731 c-15 -29 4 -63 32 -59 12 2 23 9 26 17 3 9 -2 11 -17 6
-17 -5 -21 -2 -21 15 0 17 4 20 21 15 15 -5 20 -3 17 6 -8 23 -45 22 -58 0z"/>
<path d="M6900 731 c-25 -47 36 -83 64 -38 8 12 8 22 0 35 -16 25 -51 27 -64
3z m45 -21 c0 -7 -6 -15 -12 -17 -8 -3 -13 4 -13 17 0 13 5 20 13 18 6 -3 12
-11 12 -18z"/>
<path d="M7180 706 c0 -26 -5 -46 -12 -49 -7 -2 -10 -8 -6 -12 4 -4 14 -5 23
-2 17 7 22 107 5 107 -5 0 -10 -20 -10 -44z"/>
<path d="M7220 710 c0 -22 5 -40 10 -40 6 0 10 18 10 40 0 22 -4 40 -10 40 -5
0 -10 -18 -10 -40z"/>
<path d="M7350 731 c-25 -47 36 -83 64 -38 8 12 8 22 0 35 -16 25 -51 27 -64
3z m45 -21 c0 -7 -6 -15 -12 -17 -8 -3 -13 4 -13 17 0 13 5 20 13 18 6 -3 12
-11 12 -18z"/>
<path d="M7442 713 c3 -35 6 -38 36 -41 31 -3 32 -2 32 37 0 30 -4 41 -15 41
-10 0 -15 -10 -15 -30 0 -16 -4 -30 -10 -30 -5 0 -10 14 -10 30 0 17 -5 30
-11 30 -6 0 -9 -16 -7 -37z"/>
<path d="M7580 710 c0 -22 5 -40 10 -40 6 0 10 18 10 40 0 22 -4 40 -10 40 -5
0 -10 -18 -10 -40z"/>
<path d="M3883 670 c1 -11 5 -20 9 -20 4 0 8 9 8 20 0 11 -4 20 -9 20 -6 0 -9
-9 -8 -20z"/>
<path d="M5253 670 c1 -11 5 -20 9 -20 4 0 8 9 8 20 0 11 -4 20 -9 20 -6 0 -9
-9 -8 -20z"/>
<path d="M6173 670 c1 -11 5 -20 9 -20 4 0 8 9 8 20 0 11 -4 20 -9 20 -6 0 -9
-9 -8 -20z"/>
<path d="M7620 680 c0 -5 5 -10 10 -10 6 0 10 5 10 10 0 6 -4 10 -10 10 -5 0
-10 -4 -10 -10z"/>
</g>
</svg>
